<svg xmlns="http://www.w3.org/2000/svg" viewBox="0 0 24 24" fill="none">
  <g stroke-linecap="round" stroke-linejoin="round">
    <path d="M8 3H5a2 2 0 0 0-2 2v3" stroke="#0D9488" stroke-width="3.8"/>
    <path d="M21 8V5a2 2 0 0 0-2-2h-3" stroke="#0D9488" stroke-width="3.8"/>
    <path d="M3 16v3a2 2 0 0 0 2 2h3" stroke="#0D9488" stroke-width="3.8"/>
    <path d="M16 21h3a2 2 0 0 0 2-2v-3" stroke="#0D9488" stroke-width="3.8"/>
    <path d="M8 3H5a2 2 0 0 0-2 2v3" stroke="#FFFFFF" stroke-width="2.2"/>
    <path d="M21 8V5a2 2 0 0 0-2-2h-3" stroke="#FFFFFF" stroke-width="2.2"/>
    <path d="M3 16v3a2 2 0 0 0 2 2h3" stroke="#FFFFFF" stroke-width="2.2"/>
    <path d="M16 21h3a2 2 0 0 0 2-2v-3" stroke="#FFFFFF" stroke-width="2.2"/>
  </g>
</svg>