<?xml version="1.0" encoding="UTF-8"?>
<svg width="456" height="456" viewBox="0 0 456 456" xmlns="http://www.w3.org/2000/svg">
  <rect width="456" height="456" rx="96" fill="#0D9488" />
  <rect x="118" y="96" width="220" height="18" rx="9" fill="#FFFFFF" />
  <rect x="148" y="134" width="160" height="18" rx="9" fill="#FFFFFF" />
  <rect x="178" y="172" width="100" height="18" rx="9" fill="#FFFFFF" />
  <path fill="#FFFFFF" fill-rule="evenodd" d="
    M 78,252 h300 a16,16 0 0 1 16,16 v22 a16,16 0 0 1 -16,16 h-300 a16,16 0 0 1 -16,-16 v-22 a16,16 0 0 1 16,-16 z
    M 118,279 m -9,0 a 9,9 0 1,0 18,0 a 9,9 0 1,0 -18,0 z
    M 148,273 h56 a6,6 0 0 1 6,6 v0 a6,6 0 0 1 -6,6 h-56 a6,6 0 0 1 -6,-6 v0 a6,6 0 0 1 6,-6 z" />
  <path fill="#FFFFFF" fill-rule="evenodd" d="
    M 78,314 h300 a16,16 0 0 1 16,16 v22 a16,16 0 0 1 -16,16 h-300 a16,16 0 0 1 -16,-16 v-22 a16,16 0 0 1 16,-16 z
    M 118,341 m -9,0 a 9,9 0 1,0 18,0 a 9,9 0 1,0 -18,0 z
    M 148,335 h56 a6,6 0 0 1 6,6 v0 a6,6 0 0 1 -6,6 h-56 a6,6 0 0 1 -6,-6 v0 a6,6 0 0 1 6,-6 z" />
  <rect x="118" y="378" width="36" height="12" rx="4" fill="#FFFFFF" />
  <rect x="302" y="378" width="36" height="12" rx="4" fill="#FFFFFF" />
</svg>
